<svg width="527" height="821" viewBox="0 0 527 821" fill="none" xmlns="http://www.w3.org/2000/svg">
<path opacity="0.3" d="M203.861 1.33333C209.298 4.43863 213.614 12.0294 213.614 18.24V184.891L263.069 213.443V385.356C263.069 391.566 258.667 394.068 253.316 390.962C247.878 387.857 243.563 380.266 243.563 374.056V224.656L194.022 196.191V6.94012C194.022 0.729518 198.424 -1.77198 203.861 1.33333Z" fill="url(#paint0_linear_133_61)"/>
<path opacity="0.3" d="M230.789 725.214C236.226 728.319 240.542 725.818 240.542 719.607V594.705L289.997 623.256V541.483C289.997 535.273 285.595 527.682 280.244 524.577C274.806 521.471 270.491 523.973 270.491 530.184V589.443L221.036 560.891V708.307C221.036 714.518 225.438 722.108 230.789 725.214Z" fill="url(#paint1_linear_133_61)"/>
<path opacity="0.3" d="M306.827 123.648C312.264 126.753 316.58 134.344 316.58 140.554V424.086C316.58 430.296 312.178 432.798 306.827 429.693C301.389 426.587 297.074 418.997 297.074 412.786V129.255C297.074 123.044 301.476 120.542 306.827 123.648Z" fill="url(#paint2_linear_133_61)"/>
<path d="M251.417 710.981C251.417 728.06 241.405 736.169 229.063 729.009C216.721 721.936 206.709 702.269 206.709 685.19C206.709 668.111 216.721 660.003 229.063 667.162C241.405 674.235 251.417 693.902 251.417 710.981Z" fill="#F2C94C"/>
<path opacity="0.3" d="M415.662 265.802C410.224 262.696 405.909 265.198 405.909 271.408V355.597L356.454 327.045V430.469C356.454 436.679 360.856 444.27 366.207 447.375C371.644 450.481 375.96 447.979 375.96 441.769V360.858L425.415 389.41V282.708C425.415 276.498 421.013 268.907 415.662 265.802Z" fill="url(#paint3_linear_133_61)"/>
<path d="M437.584 295.561C437.584 312.467 427.659 320.403 415.489 313.416C403.32 306.343 393.394 287.021 393.394 270.114C393.394 253.208 403.234 245.272 415.489 252.259C427.745 259.332 437.584 278.654 437.584 295.561Z" fill="#F2994A"/>
<path opacity="0.3" d="M510.256 726.163C510.256 719.952 505.854 712.361 500.503 709.256L423.689 664.919V600.657L347.392 556.665C341.954 553.56 337.639 556.061 337.639 562.272C337.639 568.483 342.041 576.073 347.392 579.179L404.183 611.957V676.219L500.589 731.77C505.941 734.875 510.256 732.373 510.256 726.163Z" fill="url(#paint4_linear_133_61)"/>
<path opacity="0.3" d="M324.865 819.667C319.428 816.562 315.112 808.971 315.112 802.76V598.328C315.112 592.117 319.514 589.616 324.865 592.721C330.303 595.826 334.618 603.417 334.618 609.628V814.06C334.618 820.271 330.216 822.772 324.865 819.667Z" fill="url(#paint5_linear_133_61)"/>
<path d="M522.167 733.581C522.167 750.66 512.155 758.768 499.813 751.609C487.471 744.535 477.459 724.869 477.459 707.789C477.459 690.71 487.471 682.602 499.813 689.761C512.155 696.835 522.167 716.501 522.167 733.581Z" fill="#F2994A"/>
<path opacity="0.3" d="M44.1037 390.445L184.614 471.528V731.683L44.1037 650.6V390.445Z" fill="url(#paint6_linear_133_61)"/>
<path opacity="0.15" d="M66.3712 555.889L150.09 604.193V614.458L66.3712 566.153V555.889Z" fill="white"/>
<path opacity="0.15" d="M75.0884 581.162L141.46 619.461V629.726L75.0884 591.427V581.162Z" fill="white"/>
<path d="M97.7012 627.483L0 571.07V600.139L97.7875 656.552L97.7012 627.483Z" fill="#F2C94C"/>
<path opacity="0.2" d="M144.826 497.491L122.99 514.743L108.317 495.939L89.1567 512.5L81.5615 506.98L109.784 483.259L124.112 502.063L139.906 490.332L144.826 497.491Z" fill="white"/>
<path d="M161.224 497.061C161.224 506.808 155.528 511.379 148.537 507.325C141.546 503.271 135.849 492.144 135.849 482.397C135.849 472.649 141.546 468.078 148.537 472.132C155.528 476.186 161.224 487.4 161.224 497.061Z" fill="#F2C94C"/>
<path d="M95.8025 515.865C95.8025 525.612 90.1062 530.184 83.1152 526.129C76.1242 522.075 70.4278 510.948 70.4278 501.201C70.4278 491.454 76.1242 486.882 83.1152 490.936C90.1062 494.99 95.8025 506.118 95.8025 515.865Z" fill="#F2C94C"/>
<path opacity="0.2" d="M527 560.547L393.394 483.432V552.956L527 630.071V560.547Z" fill="url(#paint7_linear_133_61)"/>
<path opacity="0.15" d="M427.572 520.005L467.792 543.208V551.575L427.572 528.286V520.005Z" fill="white"/>
<path opacity="0.15" d="M427.659 536.739L513.277 586.079V594.532L427.659 545.192V536.739Z" fill="white"/>
<path d="M420.582 522.42C420.582 528.113 417.216 530.873 412.986 528.458C408.757 526.043 405.391 519.401 405.391 513.708C405.391 508.015 408.757 505.255 412.986 507.67C417.216 510.085 420.582 516.727 420.582 522.42Z" fill="#F2994A"/>
<path opacity="0.2" d="M184.182 347.92L50.5769 270.805V340.329L184.182 417.444V347.92Z" fill="url(#paint8_linear_133_61)"/>
<path opacity="0.15" d="M84.7551 307.378L124.975 330.581V338.948L84.7551 315.745V307.378Z" fill="white"/>
<path opacity="0.15" d="M84.8415 324.112L170.46 373.452V381.905L84.8415 332.565V324.112Z" fill="white"/>
<path d="M77.764 309.793C77.764 315.486 74.3979 318.246 70.1688 315.831C65.9397 313.416 62.5737 306.774 62.5737 301.081C62.5737 295.388 65.9397 292.628 70.1688 295.043C74.3116 297.458 77.764 304.1 77.764 309.793Z" fill="#F2994A"/>
<path opacity="0.2" d="M360.683 499.044C360.683 541.311 335.913 561.323 305.446 543.726C274.893 526.129 250.208 477.566 250.208 435.299C250.208 393.033 274.979 373.021 305.446 390.617C335.999 408.214 360.683 456.778 360.683 499.044Z" fill="url(#paint9_linear_133_61)"/>
<path opacity="0.4" d="M283.696 478.083C285.163 477.652 285.94 476.099 285.94 473.425C285.94 470.665 285.163 468.25 283.696 466.266C282.143 464.282 279.899 462.384 276.964 460.745C276.015 460.228 274.979 459.624 273.857 459.107C272.735 458.503 271.786 457.985 270.922 457.64V472.477L276.36 475.582C279.812 477.566 282.229 478.342 283.696 478.083Z" fill="white"/>
<path opacity="0.4" d="M277.827 488.262L270.836 484.208V501.977C271.699 502.581 272.562 503.185 273.425 503.702C274.375 504.306 275.411 504.91 276.533 505.6C279.899 507.498 282.574 508.446 284.646 508.274C286.717 508.188 287.753 506.29 287.753 502.753C287.753 499.648 286.89 496.888 285.163 494.559C283.437 492.23 281.021 490.073 277.827 488.262Z" fill="white"/>
<path opacity="0.4" d="M279.726 407.869C249.173 390.272 224.489 410.284 224.489 452.551C224.489 494.818 249.259 543.381 279.726 560.978C310.279 578.575 334.963 558.563 334.963 516.296C334.963 474.029 310.193 425.466 279.726 407.869ZM293.363 522.593C290.428 523.714 286.372 523.11 281.193 520.781V531.132L270.577 525.008V514.743C269.8 514.312 269.11 513.794 268.333 513.277C265.658 511.465 262.896 509.309 259.961 506.807V440.044C262.205 440.734 264.708 441.769 267.47 443.063C268.506 443.494 269.542 444.011 270.577 444.529V434.264L281.193 440.389L281.107 450.912C281.97 451.602 282.833 452.206 283.61 452.896C286.285 455.052 288.616 457.468 290.515 460.055C292.413 462.643 293.881 465.576 294.916 468.681C296.038 471.787 296.556 475.151 296.556 478.773C296.556 484.294 294.657 487.572 290.86 488.521C294.053 491.971 296.211 495.421 297.333 498.958C298.455 502.408 299.059 506.031 299.059 509.568C299.059 516.813 297.16 521.126 293.363 522.593Z" fill="white"/>
<defs>
<linearGradient id="paint0_linear_133_61" x1="301.881" y1="69.1697" x2="160.381" y2="314.46" gradientUnits="userSpaceOnUse">
<stop stop-color="white"/>
<stop offset="1" stop-color="white" stop-opacity="0"/>
</linearGradient>
<linearGradient id="paint1_linear_133_61" x1="199.442" y1="695.862" x2="288.888" y2="540.806" gradientUnits="userSpaceOnUse">
<stop stop-color="white"/>
<stop offset="1" stop-color="white" stop-opacity="0"/>
</linearGradient>
<linearGradient id="paint2_linear_133_61" x1="368.247" y1="170.32" x2="245.515" y2="383.08" gradientUnits="userSpaceOnUse">
<stop stop-color="white"/>
<stop offset="1" stop-color="white" stop-opacity="0"/>
</linearGradient>
<linearGradient id="paint3_linear_133_61" x1="468.013" y1="224.768" x2="351.097" y2="427.441" gradientUnits="userSpaceOnUse">
<stop stop-color="white"/>
<stop offset="1" stop-color="white" stop-opacity="0"/>
</linearGradient>
<linearGradient id="paint4_linear_133_61" x1="542.451" y1="644.231" x2="347.385" y2="644.209" gradientUnits="userSpaceOnUse">
<stop stop-color="white"/>
<stop offset="1" stop-color="white" stop-opacity="0"/>
</linearGradient>
<linearGradient id="paint5_linear_133_61" x1="280.553" y1="782.813" x2="369.192" y2="629.37" gradientUnits="userSpaceOnUse">
<stop stop-color="white"/>
<stop offset="1" stop-color="white" stop-opacity="0"/>
</linearGradient>
<linearGradient id="paint6_linear_133_61" x1="199.66" y1="413.365" x2="75.0284" y2="629.416" gradientUnits="userSpaceOnUse">
<stop stop-color="white"/>
<stop offset="1" stop-color="white" stop-opacity="0"/>
</linearGradient>
<linearGradient id="paint7_linear_133_61" x1="475.266" y1="530.661" x2="445.155" y2="582.857" gradientUnits="userSpaceOnUse">
<stop stop-color="white"/>
<stop offset="1" stop-color="white" stop-opacity="0"/>
</linearGradient>
<linearGradient id="paint8_linear_133_61" x1="132.448" y1="318.034" x2="102.337" y2="370.23" gradientUnits="userSpaceOnUse">
<stop stop-color="white"/>
<stop offset="1" stop-color="white" stop-opacity="0"/>
</linearGradient>
<linearGradient id="paint9_linear_133_61" x1="316.543" y1="404.016" x2="291.589" y2="546.201" gradientUnits="userSpaceOnUse">
<stop stop-color="white"/>
<stop offset="1" stop-color="white" stop-opacity="0"/>
</linearGradient>
</defs>
</svg>
