<svg width="641" height="790" viewBox="0 0 641 790" fill="none" xmlns="http://www.w3.org/2000/svg">
<path opacity="0.07" d="M640.912 397.343C629.757 390.846 621.677 390.67 616.671 396.816C611.664 402.875 609.205 413.148 609.205 427.635V505.693C609.205 520.531 607.799 532.824 605.077 542.57C602.354 552.667 597.699 559.867 591.287 564.082C585.051 568.384 576.619 569.526 565.903 567.506C555.451 565.574 542.364 560.131 526.73 551.087L519.265 546.784V485.322L528.575 490.678C539.729 497.176 547.195 497.966 550.972 493.224C554.924 488.659 556.945 479.088 556.945 464.6V395.85C556.945 377.939 558.701 363.802 562.215 353.354C565.728 342.905 572.667 336.32 583.119 333.334C572.667 318.32 565.728 303.657 562.215 289.257C558.701 274.857 557.032 258.701 557.032 240.79V172.039C557.032 157.552 555.012 145.786 551.06 136.567C547.371 127.523 539.905 119.796 528.663 113.299L519.352 107.943V46.4806L526.818 50.783C542.452 59.8267 555.539 69.3973 565.991 79.5825C576.707 89.8555 585.139 100.831 591.375 112.333C597.874 124.011 602.442 136.479 605.164 149.737C607.887 162.645 609.293 176.605 609.293 191.356V269.413C609.293 283.901 611.752 297.072 616.758 308.837C621.765 320.691 629.845 329.822 641 336.232L640.912 397.343Z" fill="url(#paint0_linear_119_146)"/>
<path opacity="0.07" d="M357.653 171.249C368.808 177.747 376.888 177.922 381.895 171.776C386.901 165.718 389.361 155.445 389.361 140.957V62.8999C389.361 48.0611 390.766 35.7686 393.489 26.0224C396.211 15.925 400.691 8.63735 406.927 4.33498C413.427 0.120416 421.858 -1.02103 432.31 0.910647C443.026 2.93013 456.201 8.46174 471.835 17.5055L479.301 21.8079V83.2703L469.991 77.9142C458.836 71.4168 451.194 70.5388 447.242 75.1045C443.553 79.8459 441.621 89.4165 441.621 103.904V172.654C441.621 190.566 439.864 204.702 436.351 215.151C432.837 225.512 425.899 232.185 415.447 235.17C425.899 250.185 432.837 264.848 436.351 279.247C439.864 293.647 441.533 309.803 441.533 327.715V396.465C441.533 410.953 443.377 422.718 447.154 431.762C451.107 440.981 458.748 448.796 469.903 455.206L479.213 460.562V522.024L471.747 517.722C456.113 508.678 442.938 499.019 432.223 488.746C421.771 478.561 413.339 467.674 406.839 455.996C400.603 444.494 396.124 432.113 393.401 418.767C390.678 405.86 389.273 391.899 389.273 377.148V299.091C389.273 284.604 386.813 271.433 381.807 259.667C376.801 247.814 368.72 238.682 357.565 232.273L357.653 171.249Z" fill="url(#paint1_linear_119_146)"/>
<path opacity="0.4" d="M605.779 423.684C594.625 417.187 586.544 417.011 581.538 423.157C576.531 429.216 574.072 439.489 574.072 453.976V532.034C574.072 546.872 572.667 559.165 569.944 568.911C567.221 579.008 562.566 586.208 556.154 590.423C549.918 594.725 541.486 595.867 530.771 593.847C520.318 591.915 507.231 586.472 491.597 577.428L484.132 573.125V511.663L493.442 517.019C504.596 523.517 512.062 524.307 515.839 519.565C519.791 515 521.812 505.429 521.812 490.941V422.191C521.812 404.28 523.568 390.143 527.082 379.695C530.595 369.246 537.534 362.661 547.986 359.675C537.534 344.661 530.595 329.998 527.082 315.598C523.568 301.198 521.899 285.043 521.899 267.131V198.381C521.899 183.893 519.879 172.127 515.927 162.908C512.238 153.864 504.772 146.138 493.53 139.64L484.219 134.284V72.8217L491.685 77.124C507.319 86.1678 520.406 95.7383 530.858 105.924C541.574 116.197 550.006 127.172 556.242 138.674C562.741 150.352 567.309 162.82 570.032 176.078C572.754 188.986 574.16 202.946 574.16 217.697V295.755C574.16 310.242 576.619 323.413 581.625 335.178C586.632 347.032 594.712 356.163 605.867 362.573L605.779 423.684Z" fill="url(#paint2_linear_119_146)"/>
<path opacity="0.4" d="M322.52 197.59C333.675 204.088 341.755 204.263 346.762 198.117C351.768 192.059 354.228 181.786 354.228 167.298V89.2409C354.228 74.4021 355.633 62.1097 358.356 52.3635C361.078 42.2661 365.558 34.9784 371.794 30.676C378.294 26.4615 386.726 25.32 397.178 27.2517C407.893 29.2712 421.068 34.8028 436.702 43.8466L444.168 48.1489V109.611L434.858 104.255C423.703 97.7579 416.062 96.8798 412.109 101.446C408.42 106.187 406.488 115.758 406.488 130.245V198.995C406.488 216.907 404.731 231.043 401.218 241.492C397.705 251.853 390.766 258.526 380.314 261.511C390.766 276.526 397.705 291.189 401.218 305.589C404.731 319.988 406.4 336.144 406.4 354.056V422.806C406.4 437.294 408.244 449.059 412.021 458.103C415.974 467.322 423.615 475.137 434.77 481.547L444.08 486.903V548.365L436.614 544.063C420.98 535.019 407.805 525.361 397.09 515.088C386.638 504.902 378.206 494.015 371.706 482.337C365.47 470.835 360.991 458.454 358.268 445.108C355.545 432.201 354.14 418.24 354.14 403.489V325.432C354.14 310.945 351.68 297.774 346.674 286.008C341.668 274.155 333.587 265.023 322.432 258.614L322.52 197.59Z" fill="url(#paint3_linear_119_146)"/>
<path opacity="0.15" d="M127.533 10.7446L277.638 97.4066L277.55 456.786L127.445 370.124L127.533 10.7446Z" fill="url(#paint4_linear_119_146)"/>
<path d="M99.3384 65.973L218.702 134.899V168.001L99.3384 99.0749V65.973Z" fill="#049983"/>
<path opacity="0.15" d="M146.065 209.619L260.774 275.823V327.276L146.065 261.072V209.619Z" fill="white"/>
<path opacity="0.15" d="M145.977 147.367L260.862 213.658V225.6L145.977 159.396V147.367Z" fill="white"/>
<path opacity="0.15" d="M145.977 170.722L245.316 228.058V239.999L145.977 182.664V170.722Z" fill="white"/>
<path opacity="0.2" d="M127.533 10.7446L277.638 97.4066V145.611L127.533 58.9487V10.7446Z" fill="url(#paint5_linear_119_146)"/>
<path opacity="0.2" d="M165.037 56.7537C165.037 64.0414 160.733 67.4657 155.463 64.4804C150.193 61.4073 145.977 53.0659 145.977 45.7783C145.977 38.4906 150.281 35.0662 155.551 38.0516C160.733 41.1247 165.037 49.466 165.037 56.7537Z" fill="white"/>
<path opacity="0.15" d="M311.98 343.959L462.086 430.621L461.998 790L311.892 703.338L311.98 343.959Z" fill="url(#paint6_linear_119_146)"/>
<path d="M369.159 448.532L488.523 517.37V550.384L369.071 481.547L369.159 448.532Z" fill="#4478BB"/>
<path opacity="0.15" d="M330.513 482.688L445.31 548.98V600.345L330.513 534.053V482.688Z" fill="white"/>
<path opacity="0.15" d="M330.337 556.092L445.222 622.383V634.325L330.337 568.121V556.092Z" fill="white"/>
<path opacity="0.15" d="M330.337 577.691L429.676 635.027V646.968L330.337 589.633V577.691Z" fill="white"/>
<path opacity="0.2" d="M311.98 343.959L462.086 430.621V478.825L311.98 392.163V343.959Z" fill="url(#paint7_linear_119_146)"/>
<path opacity="0.2" d="M349.485 390.055C349.485 397.343 345.181 400.767 339.911 397.782C334.641 394.709 330.425 386.368 330.425 379.08C330.425 371.792 334.729 368.368 339.999 371.353C345.181 374.339 349.485 382.768 349.485 390.055Z" fill="white"/>
<path opacity="0.3" d="M285.982 393.743L24.681 242.985L24.7688 379.168L263.058 516.668L286.158 550.823L285.982 393.743Z" fill="url(#paint8_linear_119_146)"/>
<path opacity="0.15" d="M218.79 388.124L161.524 355.11V367.051L218.79 400.065V388.124Z" fill="white"/>
<path opacity="0.15" d="M218.79 412.094L77.0291 330.261V342.203L218.878 424.035L218.79 412.094Z" fill="white"/>
<path opacity="0.15" d="M218.878 436.064L47.6932 337.286V349.227L218.878 448.006V436.064Z" fill="white"/>
<path d="M232.931 408.758C232.931 419.996 239.607 432.903 247.775 437.645C255.943 442.386 262.619 437.118 262.619 425.879C262.619 414.64 255.943 401.733 247.775 396.992C239.519 392.25 232.931 397.519 232.931 408.758Z" fill="#4478BB"/>
<path opacity="0.15" d="M50.5036 147.367L15.8977 127.348V115.67L50.5036 135.689C53.3143 137.357 57.4424 140.606 60.9557 145.698C64.7325 151.142 67.4553 157.991 67.4553 165.454C67.4553 173.708 65.3473 178.361 61.3948 179.766C57.618 180.995 53.2264 178.888 50.5036 177.308L36.2748 169.054L36.187 168.966C34.9573 168.264 33.025 167.562 31.5319 168.001C30.3022 168.352 28.8091 169.669 28.8091 174.235C28.8091 178.8 30.2144 181.61 31.444 183.278C32.9372 185.386 34.8695 186.878 36.0991 187.493L36.2748 187.581L79.8396 212.692V224.37L36.5383 199.346C33.552 197.766 29.2482 194.517 25.5593 189.337C21.519 183.63 18.7084 176.43 18.7084 168.352C18.7084 160.362 21.519 156.235 25.4714 155.093C29.1604 154.04 33.4642 155.62 36.4505 157.376L50.5915 165.542C52.6116 166.683 54.1926 167.21 55.1587 166.859C55.9492 166.596 57.3545 165.454 57.3545 159.571C57.3545 155.708 56.1249 153.25 54.8952 151.493C53.4899 149.562 51.6455 147.981 50.5036 147.367Z" fill="white"/>
<path d="M26.174 128.577C26.174 138.586 20.2893 143.24 13.087 139.113C5.88476 134.986 0 123.484 0 113.475C0 103.465 5.88476 98.8114 13.087 102.938C20.2893 107.153 26.174 118.655 26.174 128.577Z" fill="#049983"/>
<path d="M95.5615 225.161C95.5615 235.17 89.6767 239.824 82.4745 235.697C75.2722 231.57 69.3875 220.068 69.3875 210.058C69.3875 200.049 75.2722 195.395 82.4745 199.522C89.6767 203.737 95.5615 215.239 95.5615 225.161Z" fill="#049983"/>
<path opacity="0.2" d="M188.927 530.453C194.197 533.526 198.413 540.814 198.413 546.96V573.74L216.155 583.925C221.425 586.999 225.641 594.286 225.641 600.433C225.641 606.491 221.338 608.949 216.155 605.964L198.413 595.779V622.559C198.413 628.617 194.11 631.076 188.927 628.091C183.658 625.017 179.442 617.73 179.442 611.584V584.804L161.699 574.618C156.43 571.545 152.214 564.257 152.214 558.111C152.214 552.053 156.517 549.594 161.699 552.58L179.442 562.765V535.985C179.442 529.839 183.658 527.38 188.927 530.453Z" fill="url(#paint9_linear_119_146)"/>
<defs>
<linearGradient id="paint0_linear_119_146" x1="696.171" y1="64.2331" x2="479.656" y2="439.608" gradientUnits="userSpaceOnUse">
<stop stop-color="white"/>
<stop offset="1" stop-color="white" stop-opacity="0.14"/>
</linearGradient>
<linearGradient id="paint1_linear_119_146" x1="592.013" y1="2.5322" x2="375.498" y2="377.908" gradientUnits="userSpaceOnUse">
<stop stop-color="white"/>
<stop offset="1" stop-color="white" stop-opacity="0"/>
</linearGradient>
<linearGradient id="paint2_linear_119_146" x1="661.038" y1="90.5742" x2="444.524" y2="465.95" gradientUnits="userSpaceOnUse">
<stop stop-color="white"/>
<stop offset="1" stop-color="white" stop-opacity="0.14"/>
</linearGradient>
<linearGradient id="paint3_linear_119_146" x1="556.88" y1="28.8731" x2="340.365" y2="404.249" gradientUnits="userSpaceOnUse">
<stop stop-color="white"/>
<stop offset="1" stop-color="white" stop-opacity="0"/>
</linearGradient>
<linearGradient id="paint4_linear_119_146" x1="280.361" y1="98.9461" x2="137.03" y2="347.35" gradientUnits="userSpaceOnUse">
<stop stop-color="white"/>
<stop offset="1" stop-color="white" stop-opacity="0"/>
</linearGradient>
<linearGradient id="paint5_linear_119_146" x1="179.034" y1="11.4784" x2="224.692" y2="140.978" gradientUnits="userSpaceOnUse">
<stop stop-color="white"/>
<stop offset="1" stop-color="white" stop-opacity="0"/>
</linearGradient>
<linearGradient id="paint6_linear_119_146" x1="464.803" y1="432.182" x2="321.471" y2="680.586" gradientUnits="userSpaceOnUse">
<stop stop-color="white"/>
<stop offset="1" stop-color="white" stop-opacity="0"/>
</linearGradient>
<linearGradient id="paint7_linear_119_146" x1="363.475" y1="344.715" x2="409.133" y2="474.214" gradientUnits="userSpaceOnUse">
<stop stop-color="white"/>
<stop offset="1" stop-color="white" stop-opacity="0.17"/>
</linearGradient>
<linearGradient id="paint8_linear_119_146" x1="229.007" y1="339.245" x2="94.0856" y2="444.919" gradientUnits="userSpaceOnUse">
<stop stop-color="white"/>
<stop offset="1" stop-color="white" stop-opacity="0"/>
</linearGradient>
<linearGradient id="paint9_linear_119_146" x1="207.249" y1="564.664" x2="161.261" y2="600.945" gradientUnits="userSpaceOnUse">
<stop stop-color="white"/>
<stop offset="1" stop-color="white" stop-opacity="0"/>
</linearGradient>
</defs>
</svg>
