<svg width="593" height="734" viewBox="0 0 593 734" fill="none" xmlns="http://www.w3.org/2000/svg">
<path opacity="0.1" d="M51.0287 0L591.821 312.223L591.742 733.764L50.9501 421.541L51.0287 0Z" fill="url(#paint0_linear_119_105)"/>
<path opacity="0.2" d="M51.0284 0L591.113 311.83V369.005L51.0284 57.1754V0Z" fill="url(#paint1_linear_119_105)"/>
<path d="M0 190.952L139.798 271.642V310.414L0 229.724V190.952Z" fill="#F2994A"/>
<path d="M385.426 407.149L525.224 487.839V526.611L385.426 445.921V407.149Z" fill="#F2C94C"/>
<path opacity="0.15" d="M293.748 459.369L566.581 616.897V734L293.748 576.473V459.369Z" fill="url(#paint2_linear_119_105)"/>
<path opacity="0.07" d="M320.167 446.157L593 603.684V720.788L320.167 563.26V446.157Z" fill="url(#paint3_linear_119_105)"/>
<path opacity="0.15" d="M313.955 494.839L355.077 518.59V557.362L313.955 533.611V494.839Z" fill="white"/>
<path opacity="0.15" d="M364.59 525.432L405.712 549.183V587.955L364.59 564.204V525.432Z" fill="white"/>
<path opacity="0.15" d="M415.226 554.137L456.347 577.888V616.661L415.226 592.831V554.137Z" fill="white"/>
<path opacity="0.15" d="M465.861 584.73L506.983 608.481V647.254L465.861 623.503V584.73Z" fill="white"/>
<path opacity="0.15" d="M87.5114 158.471L397.771 337.626V350.838L87.5114 171.762V158.471Z" fill="white"/>
<path opacity="0.15" d="M87.5114 185.132L355.234 339.671V352.883L87.5114 198.344V185.132Z" fill="white"/>
<path opacity="0.15" d="M87.5114 211.478L315.292 342.974V356.186L87.5114 224.691V211.478Z" fill="white"/>
<path opacity="0.15" d="M12.8163 284.855L239.968 415.957V533.061L12.8163 401.958V284.855Z" fill="url(#paint4_linear_119_105)"/>
<path opacity="0.07" d="M39.2345 271.642L266.386 402.744V519.848L39.2345 388.746V271.642Z" fill="url(#paint5_linear_119_105)"/>
<path opacity="0.15" d="M28.3055 321.975L208.753 426.181V439.393L28.3055 335.266V321.975Z" fill="white"/>
<path opacity="0.15" d="M28.3055 348.636L172.821 432.079V445.292L28.3055 361.849V348.636Z" fill="white"/>
<path opacity="0.2" d="M109.841 62.5234C109.841 71.0958 104.809 75.1067 98.6763 71.5677C92.5434 68.0286 87.5114 58.1979 87.5114 49.7042C87.5114 41.2104 92.5434 37.1209 98.6763 40.6599C104.809 44.199 109.841 54.0297 109.841 62.5234Z" fill="white"/>
<path opacity="0.3" d="M95.1381 512.77C95.1381 528.342 91.6786 538.33 84.7594 542.655C77.8403 546.981 68.5624 545.801 56.9257 539.037C45.289 532.353 36.0111 522.836 29.092 510.489C22.1729 498.22 18.7133 484.221 18.7133 468.65C18.7133 453.078 22.1729 443.09 29.092 438.764C36.0111 434.439 45.289 435.618 56.9257 442.382C68.5624 449.145 77.8403 458.583 84.7594 470.93C91.6786 483.199 95.1381 497.119 95.1381 512.77ZM70.7639 498.692C70.7639 490.198 69.5059 483.356 66.9113 478.008C64.3166 472.66 61.0143 468.885 57.0043 466.526C52.8371 464.088 49.4562 464.088 46.8615 466.369C44.4241 468.807 43.1661 474.233 43.1661 482.648C43.1661 491.142 44.4241 498.063 46.8615 503.411C49.4562 508.759 52.8371 512.612 57.0043 514.972C61.0143 517.331 64.3166 517.331 66.9113 514.972C69.4273 512.612 70.7639 507.107 70.7639 498.692ZM137.203 492.715L167.16 510.017L82.7938 633.884L52.8371 616.582L137.203 492.715ZM201.677 658.186C201.677 673.757 198.217 683.745 191.298 688.071C184.379 692.397 175.101 691.217 163.464 684.453C151.828 677.768 142.55 668.252 135.631 655.905C128.712 643.636 125.252 629.637 125.252 614.065C125.252 598.494 128.712 588.506 135.631 584.18C142.55 579.855 151.828 581.034 163.464 587.798C175.101 594.483 184.379 603.999 191.298 616.346C198.217 628.615 201.677 642.614 201.677 658.186ZM177.303 644.108C177.303 635.614 176.045 628.772 173.45 623.424C170.855 618.076 167.553 614.301 163.543 611.942C159.376 609.504 155.995 609.504 153.4 611.785C150.963 614.223 149.705 619.649 149.705 628.064C149.705 636.558 150.963 643.479 153.4 648.827C155.995 654.175 159.376 658.028 163.543 660.388C167.553 662.747 170.855 662.747 173.45 660.388C175.966 658.107 177.303 652.602 177.303 644.108Z" fill="url(#paint6_linear_119_105)"/>
<defs>
<linearGradient id="paint0_linear_119_105" x1="426.775" y1="261.732" x2="225.044" y2="463.017" gradientUnits="userSpaceOnUse">
<stop stop-color="white"/>
<stop offset="1" stop-color="white" stop-opacity="0"/>
</linearGradient>
<linearGradient id="paint1_linear_119_105" x1="185.03" y1="-45.9884" x2="390.179" y2="301.431" gradientUnits="userSpaceOnUse">
<stop stop-color="white"/>
<stop offset="1" stop-color="white" stop-opacity="0"/>
</linearGradient>
<linearGradient id="paint2_linear_119_105" x1="455.5" y1="552.789" x2="408.79" y2="633.694" gradientUnits="userSpaceOnUse">
<stop stop-color="white"/>
<stop offset="1" stop-color="white" stop-opacity="0"/>
</linearGradient>
<linearGradient id="paint3_linear_119_105" x1="481.941" y1="539.566" x2="435.231" y2="620.47" gradientUnits="userSpaceOnUse">
<stop stop-color="white"/>
<stop offset="1" stop-color="white" stop-opacity="0"/>
</linearGradient>
<linearGradient id="paint4_linear_119_105" x1="151.717" y1="365.045" x2="105.007" y2="445.949" gradientUnits="userSpaceOnUse">
<stop stop-color="white"/>
<stop offset="1" stop-color="white" stop-opacity="0"/>
</linearGradient>
<linearGradient id="paint5_linear_119_105" x1="178.157" y1="351.821" x2="131.446" y2="432.725" gradientUnits="userSpaceOnUse">
<stop stop-color="white"/>
<stop offset="1" stop-color="white" stop-opacity="0"/>
</linearGradient>
<linearGradient id="paint6_linear_119_105" x1="152.89" y1="503.574" x2="40.8234" y2="660.643" gradientUnits="userSpaceOnUse">
<stop stop-color="white"/>
<stop offset="1" stop-color="white" stop-opacity="0"/>
</linearGradient>
</defs>
</svg>
