<svg width="41" height="41" viewBox="0 0 41 41" fill="none" xmlns="http://www.w3.org/2000/svg">
<path d="M20.3436 5.6438C18.5103 5.6438 17.0103 7.1438 17.0103 8.97713C17.0103 10.8105 18.5103 12.3105 20.3436 12.3105C22.1769 12.3105 23.6769 10.8105 23.6769 8.97713C23.6769 7.1438 22.1769 5.6438 20.3436 5.6438ZM20.3436 28.9771C18.5103 28.9771 17.0103 30.4771 17.0103 32.3105C17.0103 34.1438 18.5103 35.6438 20.3436 35.6438C22.1769 35.6438 23.6769 34.1438 23.6769 32.3105C23.6769 30.4771 22.1769 28.9771 20.3436 28.9771ZM20.3436 17.3105C18.5103 17.3105 17.0103 18.8105 17.0103 20.6438C17.0103 22.4771 18.5103 23.9771 20.3436 23.9771C22.1769 23.9771 23.6769 22.4771 23.6769 20.6438C23.6769 18.8105 22.1769 17.3105 20.3436 17.3105Z" fill="#1E1E1E"/>
</svg>
