<svg width="120" height="60" viewBox="0 0 120 60" fill="none" xmlns="http://www.w3.org/2000/svg">
<path d="M36.7242 13.2666C22.7764 20.2874 14.95 26.1187 5.49652 36.7177C13.3414 48.9918 21.3131 54.1099 37.9088 57.7429C35.1377 54.935 29.3719 47.054 28.4766 37.9931C27.5812 28.9322 33.8843 17.6282 36.7242 13.2666Z" fill="#4478BB"/>
<path d="M116.413 24.1272C107.709 10.7435 100.737 6.31007 85.4426 2.59985C88.3247 5.8941 94.961 14.5443 95.0343 23.4672C95.1124 32.9581 90.4499 42.5819 87.7119 46.7705C99.955 39.8372 106.338 35.1802 116.413 24.1272Z" fill="#FF9B4A"/>
<path d="M69.8653 43.2392C75.5412 28.1751 75.8772 21.0215 68.2939 10.5081L81.8124 11.1524C87.5544 16.94 88.2516 22.0424 86.4708 32.7293L69.8653 43.2392Z" fill="#003E73"/>
<path d="M67.1492 42.1119C58.9426 44.7714 50.9207 43.4209 44.0571 37.6283L39.2135 47.2936C44.4561 54.0889 48.5516 56.5154 59.0527 57.0205C68.8739 57.0737 77.8953 50.015 81.6157 43.8125C85.6753 37.0448 87.6773 31.9179 87.313 23.2701C82.2165 33.2518 76.2514 39.0887 67.1492 42.1119Z" fill="#003E73"/>
<path d="M58.8085 17.3821C68.1085 11.7055 77.0759 10.9663 85.4805 15.9561C81.6571 8.78437 76.8673 4.72007 69.9119 3.64511C62.0017 2.40193 54.2163 4.86908 46.5735 11.0854C39.9959 16.4354 34.9374 27.2166 35.6594 36.4231C36.011 42.4612 38.2072 48.0195 45.127 53.5241C43.4708 47.8368 43.8753 42.1811 44.1649 39.8123C45.6321 30.6978 50.9177 22.4078 58.8085 17.3821Z" fill="#003E73"/>
<path d="M31.9538 12.1379C18.8353 19.7202 12.3302 25.2429 2.87676 35.8419C10.7217 48.116 17.1238 53.0187 33.7195 56.6518C30.9484 53.8439 25.1826 45.9629 24.2873 36.902C23.3919 27.8411 29.1139 16.4996 31.9538 12.1379Z" fill="#045599"/>
<path d="M112.224 23.0361C103.52 9.65249 96.5478 5.219 81.2533 1.50879C84.1354 4.80304 90.7716 13.4532 90.845 22.3761C90.9231 31.8671 86.1511 42.0563 83.4132 46.245C95.6562 39.3116 102.148 34.0892 112.224 23.0361Z" fill="#FFA760"/>
<path d="M65.6758 42.1481C71.3518 27.084 71.6877 19.9304 64.1045 9.41699L77.6229 10.0613C83.3649 15.8489 84.0622 20.9514 82.2813 31.6382L65.6758 42.1481Z" fill="#FFA760"/>
<path d="M62.9598 41.0208C54.7532 43.6802 46.7314 42.3297 39.8678 36.5371L35.0241 46.2024C40.2668 52.9977 44.3359 56.4259 54.837 56.931C64.6582 56.9842 73.7059 48.9238 77.4264 42.7214C81.486 35.9536 83.4442 30.8549 83.0799 22.2071C77.9834 32.1887 72.062 37.9975 62.9598 41.0208Z" fill="#4478BB"/>
<path d="M54.619 16.2907C63.919 10.6142 73.3143 10.5062 81.7189 15.496C77.8956 8.32426 72.6779 3.62876 65.7225 2.5538C57.8122 1.31062 50.0269 3.77777 42.3841 9.99408C35.8064 15.3441 30.7479 26.1253 31.4699 35.3318C31.8215 41.3699 34.0177 46.9282 40.9376 52.4328C39.2814 46.7455 39.6858 41.0898 39.9754 38.721C41.4427 29.6065 46.7283 21.3165 54.619 16.2907Z" fill="#045599"/>
<path d="M87.1088 47.2422L83.4131 46.2449L88.7092 43.0748L95.8145 38.4897L90.7272 44.4123L87.1088 47.2422Z" fill="#FF9B4A"/>
<path d="M31.9537 12.1381L36.7242 13.2668C36.7242 13.2668 35.251 14.0204 34.3777 14.616C32.7675 15.7144 31.9061 16.8597 30.6937 17.9833C28.15 20.9446 25.9678 25.1604 25.2121 27.1301L28.2697 15.5054L31.9537 12.1381Z" fill="#045599"/>
</svg>
