<svg width="43" height="36" viewBox="0 0 43 36" fill="none" xmlns="http://www.w3.org/2000/svg">
<path d="M25.5 16.5417V12.1667L31.3333 18L25.5 23.8334V19.4584H19.6667V16.5417H25.5ZM25.5 3.41669C33.55 3.41669 40.0833 9.95002 40.0833 18C40.0833 26.05 33.55 32.5834 25.5 32.5834C17.45 32.5834 10.9167 26.05 10.9167 18C10.9167 9.95002 17.45 3.41669 25.5 3.41669ZM25.5 29.6667C31.9458 29.6667 37.1667 24.4459 37.1667 18C37.1667 11.5542 31.9458 6.33335 25.5 6.33335C19.0542 6.33335 13.8333 11.5542 13.8333 18C13.8333 24.4459 19.0542 29.6667 25.5 29.6667Z" fill="white"/>
<line y1="18" x2="20" y2="18" stroke="white" stroke-width="3"/>
</svg>
