<svg width="34" height="34" viewBox="0 0 34 34" fill="none" xmlns="http://www.w3.org/2000/svg">
<path d="M16.9999 30.3333C20.5361 30.3333 23.9275 28.9285 26.428 26.428C28.9285 23.9275 30.3333 20.5361 30.3333 16.9999C30.3333 13.4637 28.9285 10.0723 26.428 7.57183C23.9275 5.07134 20.5361 3.66659 16.9999 3.66659C13.4637 3.66659 10.0723 5.07134 7.57183 7.57183C5.07134 10.0723 3.66659 13.4637 3.66659 16.9999C3.66659 20.5361 5.07134 23.9275 7.57183 26.428C10.0723 28.9285 13.4637 30.3333 16.9999 30.3333V30.3333ZM16.9999 33.6666C7.79492 33.6666 0.333252 26.2049 0.333252 16.9999C0.333252 7.79492 7.79492 0.333252 16.9999 0.333252C26.2049 0.333252 33.6666 7.79492 33.6666 16.9999C33.6666 26.2049 26.2049 33.6666 16.9999 33.6666ZM11.8166 18.9499L7.65325 17.6516C6.75325 17.3766 6.74825 16.7566 7.85492 16.3116L24.0766 10.0449C25.0183 9.66159 25.5516 10.1466 25.2466 11.3616L22.4849 24.3949C22.2916 25.3233 21.7333 25.5449 20.9583 25.1166L16.7066 21.9699L14.7249 23.8833C14.5216 24.0799 14.3566 24.2483 14.0433 24.2899C13.7316 24.3333 13.4749 24.2399 13.2866 23.7233L11.8366 18.9383L11.8166 18.9516V18.9499Z" fill="#1E1E1E"/>
</svg>
