<svg width="34" height="34" viewBox="0 0 34 34" fill="none" xmlns="http://www.w3.org/2000/svg">
<path d="M32.1667 17.3334C32.1667 25.7097 25.3764 32.5001 17 32.5001C8.62372 32.5001 1.83337 25.7097 1.83337 17.3334C1.83337 8.9571 8.62372 2.16675 17 2.16675C25.3764 2.16675 32.1667 8.9571 32.1667 17.3334Z" stroke="#1E1E1E" stroke-width="3"/>
<path d="M20.8641 12.47C20.1063 12.4699 19.3787 12.7387 18.838 13.2184C18.2972 13.6982 17.9865 14.3507 17.9726 15.0354L17.9447 16.4546C17.9431 16.5308 17.9236 16.6058 17.8877 16.6747C17.8517 16.7437 17.8 16.8049 17.736 16.8545C17.6719 16.9042 17.597 16.941 17.5162 16.9626C17.4353 16.9842 17.3503 16.9901 17.2667 16.9799L15.7103 16.7889C13.6623 16.5366 11.7001 15.6842 9.81769 14.2668C9.22145 17.2493 10.386 19.3155 13.1907 20.9095L14.9326 21.8989C15.0154 21.9459 15.0841 22.0105 15.1329 22.087C15.1816 22.1636 15.2088 22.2498 15.2122 22.3381C15.2155 22.4264 15.1949 22.5141 15.152 22.5935C15.1092 22.6729 15.0455 22.7416 14.9665 22.7936L13.3792 23.8416C14.3234 23.8947 15.2198 23.8569 15.9636 23.7235C20.6677 22.8747 23.7955 19.6759 23.7955 14.3992C23.7955 13.9685 22.7864 12.47 20.8641 12.47ZM15.9785 15.0021C15.9959 14.1335 16.2965 13.2888 16.8425 12.5739C17.3886 11.8589 18.1559 11.3054 19.0484 10.9827C19.9409 10.66 20.9188 10.5824 21.8599 10.7596C22.801 10.9368 23.6633 11.361 24.3389 11.979C24.449 11.9783 24.5566 11.9816 24.6648 11.9849C25.2532 12.0031 25.8605 12.0219 27 11.3978C26.666 12.8755 26.5015 13.5171 25.7896 14.3992C25.7896 21.2852 21.1064 24.6336 16.3544 25.4905C13.096 26.078 8.35799 25.113 7 23.8316C7.69196 23.783 10.5037 23.51 12.1289 22.435C12.0872 22.4101 12.0417 22.3834 11.9928 22.3546C10.4302 21.4348 5.39018 18.4681 8.87746 10.8806C10.5655 12.662 12.2774 13.8748 14.0123 14.5182C15.0245 14.8934 15.3662 14.9321 15.7918 14.9802C15.8517 14.987 15.9132 14.9939 15.9785 15.0021Z" fill="#1E1E1E"/>
<path d="M20.8641 12.47C20.1063 12.4699 19.3787 12.7387 18.838 13.2184C18.2972 13.6982 17.9865 14.3507 17.9726 15.0354L17.9447 16.4546C17.9431 16.5308 17.9236 16.6058 17.8877 16.6747C17.8517 16.7437 17.8 16.8049 17.736 16.8545C17.6719 16.9042 17.597 16.941 17.5162 16.9626C17.4353 16.9842 17.3503 16.9901 17.2667 16.9799L15.7103 16.7889C13.6623 16.5366 11.7001 15.6842 9.81769 14.2668C9.22145 17.2493 10.386 19.3155 13.1907 20.9095L14.9326 21.8989C15.0154 21.9459 15.0841 22.0105 15.1329 22.087C15.1816 22.1636 15.2088 22.2498 15.2122 22.3381C15.2155 22.4264 15.1949 22.5141 15.152 22.5935C15.1092 22.6729 15.0455 22.7416 14.9665 22.7936L13.3792 23.8416C14.3234 23.8947 15.2198 23.8569 15.9636 23.7235C20.6677 22.8747 23.7955 19.6759 23.7955 14.3992C23.7955 13.9685 22.7864 12.47 20.8641 12.47ZM15.9785 15.0021C15.9959 14.1335 16.2965 13.2888 16.8425 12.5739C17.3886 11.8589 18.1559 11.3054 19.0484 10.9827C19.9409 10.66 20.9188 10.5824 21.8599 10.7596C22.801 10.9368 23.6633 11.361 24.3389 11.979C24.449 11.9783 24.5566 11.9816 24.6648 11.9849C25.2532 12.0031 25.8605 12.0219 27 11.3978C26.666 12.8755 26.5015 13.5171 25.7896 14.3992C25.7896 21.2852 21.1064 24.6336 16.3544 25.4905C13.096 26.078 8.35799 25.113 7 23.8316C7.69196 23.783 10.5037 23.51 12.1289 22.435C12.0872 22.4101 12.0417 22.3834 11.9928 22.3546C10.4302 21.4348 5.39018 18.4681 8.87746 10.8806C10.5655 12.662 12.2774 13.8748 14.0123 14.5182C15.0245 14.8934 15.3662 14.9321 15.7918 14.9802C15.8517 14.987 15.9132 14.9939 15.9785 15.0021Z" stroke="#1E1E1E"/>
</svg>
