<svg width="34" height="34" viewBox="0 0 34 34" fill="none" xmlns="http://www.w3.org/2000/svg">
<path d="M18.6666 30.23C22.0287 29.8022 25.1018 28.1103 27.2613 25.498C29.4207 22.8858 30.5045 19.5493 30.2922 16.1667C30.08 12.7841 28.5877 9.60919 26.1187 7.28734C23.6497 4.96549 20.3892 3.67091 16.9999 3.66671C13.6065 3.66418 10.3398 4.9556 7.86548 7.27784C5.39113 9.60007 3.89532 12.7784 3.68282 16.1651C3.47033 19.5518 4.55715 22.8922 6.72183 25.5055C8.8865 28.1188 11.9661 29.8084 15.3333 30.23V20.3334H11.9999V17H15.3333V14.2434C15.3333 12.015 15.5666 11.2067 15.9999 10.3917C16.4268 9.58535 17.0865 8.92619 17.8933 8.50004C18.5299 8.15837 19.3216 7.95337 20.7049 7.86504C21.2533 7.83004 21.9633 7.87337 22.8349 7.99837V11.165H21.9999C20.4716 11.165 19.8399 11.2367 19.4633 11.4384C19.2385 11.554 19.0555 11.737 18.9399 11.9617C18.7399 12.3384 18.6666 12.7117 18.6666 14.2417V17H22.8333L21.9999 20.3334H18.6666V30.23ZM16.9999 33.6667C7.79492 33.6667 0.333252 26.205 0.333252 17C0.333252 7.79504 7.79492 0.333374 16.9999 0.333374C26.2049 0.333374 33.6666 7.79504 33.6666 17C33.6666 26.205 26.2049 33.6667 16.9999 33.6667Z" fill="#1E1E1E"/>
</svg>
